# Exported from ProBuilder
# http://www.procore3d.com/probuilder
# 12/11/2023 10:18:27 PM

mtllib ./waterflow.mtl
o waterflow

g Arch
v 0.3019305 2.022219 0.8756117
v 0.3848006 2.814397 0.669651
v 0 2 2.356336
v 0.3848006 2.814397 0.669651
v 0.08287001 2.700251 2.356336
v 0 2 2.356336
v 1.211832 2.697689 0.5884859
v 1.142774 2.022219 0.4777502
v 0.9099014 2.583543 2.068889
v 1.142774 2.022219 0.4777502
v 0.8408432 2 2.356336
v 0.9099014 2.583543 2.068889
v 0 2 2.356336
v 0.8408432 2 2.356336
v 0.3019305 2.022219 0.8756117
v 0.8408432 2 2.356336
v 1.142774 2.022219 0.4777502
v 0.3019305 2.022219 0.8756117
v 0.3848006 2.814397 0.669651
v 0.3269012 3.453743 1.000001
v 0.08287001 2.700251 2.356336
v 0.3269012 3.453743 1.000001
v 0.3269012 3.361816 2
v 0.08287001 2.700251 2.356336
v 0.9113014 3.026523 1.316697
v 1.211832 2.697689 0.5884859
v 0.9113014 2.934597 1.712553
v 1.211832 2.697689 0.5884859
v 0.9099014 2.583543 2.068889
v 0.9113014 2.934597 1.712553
v 0.3269012 3.453743 1.000001
v 0.7186122 4.083503 0.8988632
v 0.3269012 3.361816 2
v 0.7186122 4.083503 0.8988632
v 0.7186122 3.841096 2.10478
v 0.3269012 3.361816 2
v 1.237727 3.423204 1.008765
v 0.9113014 3.026523 1.316697
v 1.237727 3.295699 1.833885
v 0.9113014 3.026523 1.316697
v 0.9113014 2.934597 1.712553
v 1.237727 3.295699 1.833885
v 1.530301 4.157729 1.008765
v 1.237727 3.423204 1.008765
v 1.530301 4.157729 1.833884
v 1.237727 3.423204 1.008765
v 1.237727 3.295699 1.833885
v 1.530301 4.157729 1.833884
v 1.851547 4.789557 0.9999995
v 1.851547 4.665508 2
v 1.236362 4.451809 2.10478
v 2.042955 4.683276 1.284979
v 1.530301 4.157729 1.008765
v 2.042955 4.683326 1.756522
v 1.530301 4.157729 1.008765
v 1.530301 4.157729 1.833884
v 2.042955 4.683326 1.756522
v 1.851547 4.789557 0.9999995
v 3.14282 5.098341 0.9999995
v 1.851547 4.665508 2
v 3.14282 5.098341 0.9999995
v 3.14282 4.974293 2
v 1.851547 4.665508 2
v 2.608483 4.707511 1.284979
v 2.042955 4.683276 1.284979
v 2.608483 4.707561 1.756522
v 2.042955 4.683276 1.284979
v 2.042955 4.683326 1.756522
v 2.608483 4.707561 1.756522
v 2.608483 4.707561 1.756522
v 3.14282 4.974293 2
v 2.608483 4.707511 1.284979
v 3.14282 4.974293 2
v 3.14282 5.098341 0.9999995
v 2.608483 4.707511 1.284979
v 0 2 2.356336
v 0.08287001 2.700251 2.356336
v 0.8408432 2 2.356336
v 0.08287001 2.700251 2.356336
v 0.9099014 2.583543 2.068889
v 0.8408432 2 2.356336
v 0.3848006 2.814397 0.669651
v 0.3019305 2.022219 0.8756117
v 1.211832 2.697689 0.5884859
v 0.3019305 2.022219 0.8756117
v 1.142774 2.022219 0.4777502
v 1.211832 2.697689 0.5884859
v 0.08287001 2.700251 2.356336
v 0.3269012 3.361816 2
v 0.9099014 2.583543 2.068889
v 0.3269012 3.361816 2
v 0.9113014 2.934597 1.712553
v 0.9099014 2.583543 2.068889
v 0.3269012 3.453743 1.000001
v 0.3848006 2.814397 0.669651
v 0.9113014 3.026523 1.316697
v 0.3848006 2.814397 0.669651
v 1.211832 2.697689 0.5884859
v 0.9113014 3.026523 1.316697
v 0.3269012 3.361816 2
v 0.7186122 3.841096 2.10478
v 0.9113014 2.934597 1.712553
v 0.7186122 3.841096 2.10478
v 1.237727 3.295699 1.833885
v 0.9113014 2.934597 1.712553
v 0.7186122 4.083503 0.8988632
v 0.3269012 3.453743 1.000001
v 1.237727 3.423204 1.008765
v 0.3269012 3.453743 1.000001
v 0.9113014 3.026523 1.316697
v 1.237727 3.423204 1.008765
v 1.236362 4.451809 2.10478
v 1.530301 4.157729 1.833884
v 1.237727 3.295699 1.833885
v 1.236362 4.569081 0.8988632
v 0.7186122 4.083503 0.8988632
v 1.530301 4.157729 1.008765
v 0.7186122 4.083503 0.8988632
v 1.237727 3.423204 1.008765
v 1.530301 4.157729 1.008765
v 1.236362 4.451809 2.10478
v 1.851547 4.665508 2
v 1.530301 4.157729 1.833884
v 1.851547 4.665508 2
v 2.042955 4.683326 1.756522
v 1.530301 4.157729 1.833884
v 1.851547 4.789557 0.9999995
v 1.236362 4.569081 0.8988632
v 2.042955 4.683276 1.284979
v 1.236362 4.569081 0.8988632
v 1.530301 4.157729 1.008765
v 2.042955 4.683276 1.284979
v 1.851547 4.665508 2
v 3.14282 4.974293 2
v 2.042955 4.683326 1.756522
v 3.14282 4.974293 2
v 2.608483 4.707561 1.756522
v 2.042955 4.683326 1.756522
v 3.14282 5.098341 0.9999995
v 1.851547 4.789557 0.9999995
v 2.608483 4.707511 1.284979
v 1.851547 4.789557 0.9999995
v 2.042955 4.683276 1.284979
v 2.608483 4.707511 1.284979
v 0.7186122 3.841096 2.10478
v 0.7186122 4.083503 0.8988632
v 1.236362 4.569081 0.8988632
v 1.106924 4.449407 1.200342
v 0.977487 4.329731 1.501822
v 0.8480496 3.960771 1.803301
v 1.236362 4.569081 1.501822
v 1.236362 4.569081 1.200342
v 1.236362 4.569081 0.8988632
v 1.851547 4.789557 0.9999995
v 1.236362 4.451809 2.10478
v 1.236362 4.569081 1.803301
v 1.236362 4.569081 0.8988632
v 1.236362 4.569081 1.200342
v 1.128497 4.469352 1.401329
v 1.106924 4.449407 1.200342
v 1.236362 4.569081 1.200342
v 1.236362 4.569081 1.501822
v 1.15007 4.489298 1.602315
v 1.128497 4.469352 1.401329
v 1.15007 4.489298 1.602315
v 1.063779 4.409514 1.702808
v 1.020633 4.369623 1.602315
v 1.128497 4.469352 1.401329
v 1.020633 4.369623 1.602315
v 0.977487 4.329731 1.501822
v 1.106924 4.449407 1.200342
v 1.128497 4.469352 1.401329
v 1.063779 4.409514 1.702808
v 1.15007 4.489298 1.602315
v 1.128497 4.393414 1.853547
v 1.020633 4.293684 1.903794
v 1.15007 4.489298 1.602315
v 1.236362 4.569081 1.501822
v 1.236362 4.569081 1.803301
v 1.128497 4.393414 1.853547
v 1.236362 4.569081 1.803301
v 1.236362 4.451809 2.10478
v 1.266528 4.245962 1.975249
v 1.128497 4.393414 1.853547
v 1.266528 4.245962 1.975249
v 1.137091 4.253793 1.975249
v 1.020633 4.293684 1.903794
v 1.128497 4.393414 1.853547
v 0.7186122 3.841096 2.10478
v 0.8480496 3.960771 1.803301
v 0.9343412 4.175479 1.626799
v 0.8480496 3.960771 1.878032
v 0.8480496 3.960771 1.803301
v 0.977487 4.329731 1.501822
v 1.020633 4.369623 1.602315
v 0.9343412 4.175479 1.626799
v 1.020633 4.369623 1.602315
v 1.063779 4.409514 1.702808
v 1.020633 4.293684 1.903794
v 0.9343412 4.175479 1.626799
v 1.020633 4.293684 1.903794
v 1.137091 4.253793 1.975249
v 0.8480496 3.960771 1.878032
v 0.9343412 4.175479 1.626799
v 1.237727 3.295699 1.833885
v 1.266528 4.245962 1.975249
v 1.236362 4.451809 2.10478
v 1.237727 3.295699 1.833885
v 1.137091 4.253793 1.975249
v 1.266528 4.245962 1.975249
v 1.237727 3.295699 1.833885
v 0.8480496 3.960771 1.878032
v 1.137091 4.253793 1.975249
v 1.237727 3.295699 1.833885
v 0.7186122 3.841096 2.10478
v 0.8480496 3.960771 1.878032

vn -0.9787261 0.05069604 -0.1988087
vn -0.9787261 0.05069604 -0.1988087
vn -0.9787261 0.05069604 -0.1988087
vn -0.9790541 0.1158644 -0.1674176
vn -0.9790541 0.1158644 -0.1674176
vn -0.9790541 0.1158644 -0.1674176
vn 0.973382 -0.1304131 0.1884674
vn 0.973382 -0.1304131 0.1884674
vn 0.973382 -0.1304131 0.1884674
vn 0.9866547 -0.03887651 0.1581175
vn 0.9866547 -0.03887651 0.1581175
vn 0.9866547 -0.03887651 0.1581175
vn 0 -0.9998874 -0.01500392
vn 0 -0.9998874 -0.01500392
vn 0 -0.9998874 -0.01500392
vn -0.006056493 -0.9998997 -0.01279984
vn -0.006056493 -0.9998997 -0.01279984
vn -0.006056493 -0.9998997 -0.01279984
vn -0.9843731 0.001838731 -0.1760864
vn -0.9843731 0.001838731 -0.1760864
vn -0.9843731 0.001838731 -0.1760864
vn -0.9317423 0.3615956 0.03324028
vn -0.9317423 0.3615956 0.03324028
vn -0.9317423 0.3615956 0.03324028
vn 0.8500529 0.5130453 0.1191407
vn 0.8500529 0.5130453 0.1191407
vn 0.8500529 0.5130453 0.1191407
vn 0.9546208 0.2102761 0.2109097
vn 0.9546208 0.2102761 0.2109097
vn 0.9546208 0.2102761 0.2109097
vn -0.8445711 0.5331952 0.04901486
vn -0.8445711 0.5331952 0.04901486
vn -0.8445711 0.5331952 0.04901486
vn -0.7814225 0.611765 0.1229737
vn -0.7814225 0.611765 0.1229737
vn -0.7814225 0.611765 0.1229737
vn 0.7263917 -0.6792191 -0.1049594
vn 0.7263917 -0.6792191 -0.1049594
vn 0.7263917 -0.6792191 -0.1049594
vn 0.7578651 -0.6355007 -0.1475776
vn 0.7578651 -0.6355007 -0.1475776
vn 0.7578651 -0.6355007 -0.1475776
vn 0.9290146 -0.3700431 0
vn 0.9290146 -0.3700431 0
vn 0.9290146 -0.3700431 0
vn 0.9457796 -0.3209991 -0.04960382
vn 0.9457796 -0.3209991 -0.04960382
vn 0.9457796 -0.3209991 -0.04960382
vn -0.3080234 0.9441423 0.1171187
vn -0.3080234 0.9441423 0.1171187
vn -0.3080234 0.9441423 0.1171187
vn 0.7158135 -0.6982914 7.414383E-05
vn 0.7158135 -0.6982914 7.414383E-05
vn 0.7158135 -0.6982914 7.414383E-05
vn 0.7158663 -0.6982374 0
vn 0.7158663 -0.6982374 0
vn 0.7158663 -0.6982374 0
vn -0.2308999 0.9655768 0.1197776
vn -0.2308999 0.9655768 0.1197776
vn -0.2308999 0.9655768 0.1197776
vn -0.2308999 0.9655768 0.1197776
vn -0.2308999 0.9655768 0.1197776
vn -0.2308999 0.9655768 0.1197776
vn 0.04281494 -0.999083 0.0001060816
vn 0.04281494 -0.999083 0.0001060816
vn 0.04281494 -0.999083 0.0001060816
vn 0.04281494 -0.999083 0.0001060816
vn 0.04281494 -0.999083 0.0001060816
vn 0.04281494 -0.999083 0.0001060816
vn 0.4465931 -0.8947371 9.500222E-05
vn 0.4465931 -0.8947371 9.500222E-05
vn 0.4465931 -0.8947371 9.500222E-05
vn 0.5509636 -0.8281816 -0.1027341
vn 0.5509636 -0.8281816 -0.1027341
vn 0.5509636 -0.8281816 -0.1027341
vn 0 0 1
vn 0 0 1
vn 0 0 1
vn 0.3510631 0.3800014 0.8557767
vn 0.3510631 0.3800014 0.8557767
vn 0.3510631 0.3800014 0.8557767
vn -0.1279584 -0.2369995 -0.9630461
vn -0.1279584 -0.2369995 -0.9630461
vn -0.1279584 -0.2369995 -0.9630461
vn -0.4200411 0.1884754 -0.8877177
vn -0.4200411 0.1884754 -0.8877177
vn -0.4200411 0.1884754 -0.8877177
vn 0.3511938 0.340287 0.8722773
vn 0.3511938 0.340287 0.8722773
vn 0.3511938 0.340287 0.8722773
vn 0.6544557 0.5373339 0.5319399
vn 0.6544557 0.5373339 0.5319399
vn 0.6544557 0.5373339 0.5319399
vn 0.6442233 0.3963341 -0.6541374
vn 0.6442233 0.3963341 -0.6541374
vn 0.6442233 0.3963341 -0.6541374
vn 0.09294395 0.9212696 -0.3776557
vn 0.09294395 0.9212696 -0.3776557
vn 0.09294395 0.9212696 -0.3776557
vn 0.1902132 -0.3555203 0.9151089
vn 0.1902132 -0.3555203 0.9151089
vn 0.1902132 -0.3555203 0.9151089
vn 0.07973999 -0.3815158 0.9209165
vn 0.07973999 -0.3815158 0.9209165
vn 0.07973999 -0.3815158 0.9209165
vn 0.004097147 -0.161048 -0.9869381
vn 0.004097147 -0.161048 -0.9869381
vn 0.004097147 -0.161048 -0.9869381
vn -0.01268966 -0.6066125 -0.7948964
vn -0.01268966 -0.6066125 -0.7948964
vn -0.01268966 -0.6066125 -0.7948964
vn 0.556596 -0.1889091 0.8090206
vn 0.556596 -0.1889091 0.8090206
vn 0.556596 -0.1889091 0.8090206
vn 0.1465443 -0.1562532 -0.9767854
vn 0.1465443 -0.1562532 -0.9767854
vn 0.1465443 -0.1562532 -0.9767854
vn 0.1389368 -0.05534165 -0.9887537
vn 0.1389368 -0.05534165 -0.9887537
vn 0.1389368 -0.05534165 -0.9887537
vn 0.3029588 -0.4639858 0.8324261
vn 0.3029588 -0.4639858 0.8324261
vn 0.3029588 -0.4639858 0.8324261
vn 0.662662 -0.5758677 0.4788063
vn 0.662662 -0.5758677 0.4788063
vn 0.662662 -0.5758677 0.4788063
vn 0.3620155 -0.7673152 -0.5293129
vn 0.3620155 -0.7673152 -0.5293129
vn 0.3620155 -0.7673152 -0.5293129
vn 0.423869 0.06145775 -0.9036361
vn 0.423869 0.06145775 -0.9036361
vn 0.423869 0.06145775 -0.9036361
vn 0.2311378 -0.9665713 0.110974
vn 0.2311378 -0.9665713 0.110974
vn 0.2311378 -0.9665713 0.110974
vn 0.03026593 -0.7062666 0.7072987
vn 0.03026593 -0.7062666 0.7072987
vn 0.03026593 -0.7062666 0.7072987
vn 0.1730651 -0.7237234 -0.6680366
vn 0.1730651 -0.7237234 -0.6680366
vn 0.1730651 -0.7237234 -0.6680366
vn 0.0397344 -0.9271916 -0.3724742
vn 0.0397344 -0.9271916 -0.3724742
vn 0.0397344 -0.9271916 -0.3724742
vn -0.4084175 0.8948944 0.1798868
vn -0.7230292 0.6832411 0.1020318
vn -0.6840767 0.7293981 -0.004160361
vn -0.6840767 0.7293981 -0.004160379
vn -0.8120559 0.572135 0.1150075
vn -0.7481502 0.6347766 0.1932094
vn -0.3373756 0.9413701 0
vn -0.3373756 0.9413701 0
vn -0.3373756 0.9413701 0
vn -0.2244403 0.9699124 0.09432193
vn 0.1380447 0.9230496 0.3590585
vn -0.1019626 0.97649 0.1899232
vn -0.6788756 0.7342533 -1.05143E-08
vn -0.6788756 0.7342533 0
vn -0.6788756 0.7342533 -1.05143E-08
vn -0.6788757 0.7342533 -2.10286E-08
vn -0.6788756 0.7342533 0
vn -0.6788756 0.7342534 -1.642859E-08
vn -0.6788754 0.7342533 -4.380956E-08
vn -0.6788756 0.7342534 -1.642859E-08
vn -0.6788756 0.7342533 -6.13334E-08
vn -0.6788756 0.7342534 -1.314287E-07
vn -0.6788756 0.7342533 -6.13334E-08
vn -0.6788756 0.7342533 -2.628574E-08
vn -0.6788756 0.7342533 -8.761914E-08
vn -0.6788756 0.7342533 -5.914292E-08
vn -0.6788756 0.7342532 -4.205718E-08
vn -0.6788756 0.7342533 -5.914292E-08
vn -0.2888993 0.8549937 0.4307238
vn -0.5084651 0.8055047 0.3043444
vn -0.5958795 0.7660018 0.2411824
vn -0.5084651 0.8055047 0.3043444
vn -0.7704051 0.6325576 0.07966656
vn -0.6788755 0.7342534 0
vn -0.7704051 0.6325576 0.07966656
vn -0.8260162 0.5465737 0.1376749
vn -0.8033318 0.5550191 0.2158977
vn -0.9223058 0.1108993 0.370207
vn -0.8076937 -0.3942417 0.4384114
vn -0.9223058 0.1108993 0.370207
vn 0.03980153 0.6579453 0.7520132
vn -0.09258765 0.6510082 0.7534028
vn -0.2379141 0.6298456 0.7393858
vn -0.09258765 0.6510082 0.7534028
vn -0.6788756 0.7342533 0
vn -0.840299 0.5421234 0
vn -0.9278667 0.3729119 0
vn -0.840299 0.5421234 0
vn -0.7876965 0.5055631 0.3520515
vn -0.8675489 0.4596195 0.1900236
vn -0.7876965 0.5055631 0.3520515
vn 0.9097629 -0.4113817 -0.05564808
vn -0.8826824 0.4191382 0.2125905
vn -0.8845912 0.4522413 0.1139137
vn -0.8828887 0.4631603 0.07739408
vn -0.8845912 0.4522413 0.1139137
vn -0.8286356 0.3991994 0.3924321
vn -0.4700444 0.1767545 0.8647636
vn -0.8286356 0.3991994 0.3924321
vn -0.8873488 0.4535914 0.08286694
vn -0.935475 0.07957422 -0.3443173
vn -0.935475 0.07957422 -0.3443173
vn -0.935475 0.07957422 -0.3443173
vn -0.008884994 -0.146874 0.9891152
vn -0.008884994 -0.146874 0.9891152
vn -0.008884994 -0.146874 0.9891152
vn -0.1642678 -0.1608489 0.9732131
vn -0.1642678 -0.1608489 0.9732131
vn -0.1642678 -0.1608489 0.9732131
vn 0.7065161 0.3740832 0.6007469
vn 0.7065161 0.3740832 0.6007469
vn 0.7065161 0.3740832 0.6007469

vt -0.277887 -1.593521
vt -0.4962222 -0.8003235
vt 1.233307 -1.615769
vt -0.5366926 -0.8799394
vt 1.176752 -0.9948591
vt 1.19072 -1.699859
vt 0.7450973 -0.9107888
vt 0.8406866 -1.592076
vt -0.7657069 -1.025918
vt 0.8596328 -1.548029
vt -1.043062 -1.570265
vt -0.7483084 -0.9862807
vt -1.57141 0.9624311
vt -0.7305667 0.9624311
vt -1.269479 -0.5184604
vt -0.7211701 0.9591016
vt -0.4193796 -0.9196385
vt -1.260207 -0.5217444
vt -0.5267678 -0.7371618
vt -0.1913844 -0.09781519
vt 1.186728 -0.8513078
vt -0.4611472 -0.533317
vt 0.5382161 -0.6319153
vt 0.8856255 -1.341494
vt 0.007751606 -0.1060868
vt 0.7706277 -0.4891829
vt -0.3842721 -0.2131822
vt 0.7314739 -0.721028
vt -0.7792055 -0.8377841
vt -0.430958 -0.4787017
vt -0.4884457 -0.7302994
vt -0.5667188 0.01410477
vt 0.5098736 -0.8389606
vt -0.6444547 -0.04341009
vt 0.546801 -0.349851
vt 0.3824002 -0.955737
vt 0.4518009 -0.2771072
vt 0.1937161 -0.8175919
vt -0.3648376 -0.4508354
vt 0.2246678 -0.8031122
vt -0.1638893 -0.9221725
vt -0.3453771 -0.4544843
vt 0.4082783 0.550148
vt 0.4082779 -0.2405012
vt -0.4168413 0.550148
vt 0.4251943 -0.2194005
vt -0.3987928 -0.3540305
vt -0.4141161 0.5561676
vt -0.6510372 -0.5421059
vt -0.6125628 0.4648239
vt 0.03856486 0.5703305
vt 0.1321131 1.141075
vt 0.4082741 0.4068793
vt -0.3394296 1.141145
vt 0.4082783 0.4069432
vt -0.4168413 0.4069432
vt -0.3394785 1.141155
vt -0.5609367 -0.5507339
vt -1.888617 -0.5507339
vt -0.5320864 0.4565175
vt -1.888617 -0.5507339
vt -1.859766 0.4565175
vt -0.5320864 0.4565175
vt 1.085716 -0.1319457
vt 0.5196697 -0.1319462
vt 1.085718 0.339597
vt 0.5196697 -0.1319462
vt 0.5196719 0.3395965
vt 1.085718 0.339597
vt 1.445237 0.3395334
vt 2.042449 0.5830108
vt 1.445215 -0.1320093
vt 2.097703 0.5473932
vt 2.166412 -0.4579262
vt 1.505052 -0.1714303
vt -1.57141 -1.54917
vt -1.48854 -0.848919
vt -0.7305667 -1.54917
vt -1.733658 -0.9007823
vt -0.8594105 -1.026956
vt -1.032398 -1.657822
vt 1.077832 -0.5012105
vt 1.187107 -1.31662
vt 0.2473155 -0.6213415
vt 0.9159311 -1.694162
vt -0.0142898 -1.694162
vt -0.02935034 -1.006366
vt -1.731635 -0.9055766
vt -1.372177 -0.202025
vt -0.857093 -1.029692
vt -1.237326 0.1633441
vt -0.6456668 -0.3432182
vt -0.9230672 -0.75947
vt 1.179327 0.1407228
vt 1.369877 -0.5556513
vt 0.5407292 -0.3246036
vt 1.106862 -1.013117
vt 0.2722925 -1.100773
vt 0.6043127 -0.3143222
vt -1.337102 -0.06224045
vt -0.9749117 0.45054
vt -0.7064332 -0.5193214
vt -0.9089463 0.5031825
vt -0.3683977 -0.08684236
vt -0.6831399 -0.4774925
vt 0.8549415 0.6102384
vt 1.246229 -0.02785087
vt 0.3353748 -0.05879297
vt 1.237693 0.1891361
vt 0.6584227 -0.348248
vt 0.3271234 0.1507232
vt -0.6658412 0.9575461
vt -0.2701337 0.6580743
vt -0.5111726 -0.2197616
vt 0.4082207 1.079687
vt 0.9202399 0.58807
vt 0.1012284 0.6632195
vt 0.9166059 0.5553442
vt 0.3872484 -0.1059676
vt 0.0975205 0.6296845
vt -0.5500512 1.046287
vt 0.06387278 1.287526
vt -0.1811897 0.7143098
vt -0.3084509 1.240025
vt 0.001002342 1.261819
vt -0.3619478 0.6189207
vt 0.7826156 -0.8843458
vt 0.1321694 -1.00355
vt 0.9103767 -0.5484542
vt 0.5233914 0.9978961
vt 0.2106017 0.5857643
vt -0.3708285 1.112307
vt 0.5320864 0.6926128
vt 1.859767 0.6926128
vt 0.7223905 0.4476217
vt 1.545051 1.467703
vt 1.021611 1.090935
vt 0.4566011 1.056702
vt 1.888617 -1.072711
vt 0.5609368 -1.072711
vt 1.278035 -0.6897396
vt 0.3329872 -0.844155
vt 0.5196701 -0.5370791
vt 1.085717 -0.5370786
vt 0.5482321 -0.3999504
vt -0.643305 -0.0951499
vt -0.563588 0.6067936
vt -0.2856329 0.4022327
vt -0.007677935 0.1976718
vt 0.2702771 -0.1953895
vt -0.004397631 0.005524091
vt -0.004397631 -0.2951372
vt -0.004397631 -0.5957985
vt -0.6577296 -0.4960251
vt 0.03265911 0.615037
vt -0.004397631 0.3061854
vt -0.5577136 0.6857857
vt -0.2588486 0.6631352
vt -0.07377907 0.5050771
vt -0.2758572 0.491586
vt -0.2588486 0.6631352
vt 0.04001647 0.6404846
vt 0.1282991 0.5185684
vt -0.07377907 0.5050771
vt 0.1282991 0.5185684
vt 0.2165817 0.396652
vt 0.1112904 0.3470191
vt -0.07377907 0.5050771
vt 0.1112904 0.3470191
vt 0.0059992 0.2973862
vt -0.2758572 0.491586
vt -0.07377907 0.5050771
vt 0.2165817 0.396652
vt 0.1282991 0.5185684
vt 0.3745185 0.4087995
vt 0.4101555 0.2620667
vt 0.1282991 0.5185684
vt 0.04001647 0.6404846
vt 0.3388815 0.6178342
vt 0.3745185 0.4087995
vt 0.3388815 0.6178342
vt 0.6377465 0.4989703
vt 0.5133023 0.3569192
vt 0.3745185 0.4087995
vt 0.5133023 0.3569192
vt 0.4962937 0.2899784
vt 0.4101555 0.2620667
vt 0.3745185 0.4087995
vt 0.569712 -0.2955328
vt 0.2878556 -0.101333
vt 0.1242238 0.1369891
vt 0.3619389 -0.1069477
vt 0.2878556 -0.101333
vt 0.0059992 0.2973862
vt 0.1112904 0.3470191
vt 0.1242238 0.1369891
vt 0.1112904 0.3470191
vt 0.2165817 0.396652
vt 0.4101555 0.2620667
vt 0.1242238 0.1369891
vt 0.4101555 0.2620667
vt 0.4962937 0.2899784
vt 0.3619389 -0.1069477
vt 0.1242238 0.1369891
vt 0.5064437 -0.2661285
vt 0.6291584 0.6871579
vt 0.7611371 0.893659
vt -0.3299251 -0.1890614
vt -0.4292877 0.7795364
vt -0.2998556 0.7716203
vt -0.2596517 -0.1751245
vt -0.6365466 0.4987215
vt -0.3353567 0.7956089
vt -0.5337145 -0.2409831
vt -1.076362 0.3471122
vt -0.8197719 0.4761566

g Arch_0
usemtl Default_Prototype
f 160/160/160 159/159/159 158/158/158 157/157/157
f 163/163/163 162/162/162 161/161/161 164/164/164
f 166/166/166 165/165/165 168/168/168 167/167/167
f 169/169/169 172/172/172 171/171/171 170/170/170
f 175/175/175 174/174/174 173/173/173 176/176/176
f 180/180/180 179/179/179 178/178/178 177/177/177
f 183/183/183 182/182/182 181/181/181 184/184/184
f 185/185/185 188/188/188 187/187/187 186/186/186
f 191/191/191 190/190/190 189/189/189 192/192/192
f 196/196/196 195/195/195 194/194/194 193/193/193
f 199/199/199 198/198/198 197/197/197 200/200/200
f 202/202/202 201/201/201 204/204/204 203/203/203

g Arch_1
usemtl Default_Prototype
f 3/3/3 2/2/2 1/1/1
f 6/6/6 5/5/5 4/4/4
f 9/9/9 8/8/8 7/7/7
f 12/12/12 11/11/11 10/10/10
f 15/15/15 14/14/14 13/13/13
f 18/18/18 17/17/17 16/16/16
f 21/21/21 20/20/20 19/19/19
f 24/24/24 23/23/23 22/22/22
f 27/27/27 26/26/26 25/25/25
f 30/30/30 29/29/29 28/28/28
f 33/33/33 32/32/32 31/31/31
f 36/36/36 35/35/35 34/34/34
f 39/39/39 38/38/38 37/37/37
f 42/42/42 41/41/41 40/40/40
f 45/45/45 44/44/44 43/43/43
f 48/48/48 47/47/47 46/46/46
f 51/51/51 50/50/50 49/49/49
f 54/54/54 53/53/53 52/52/52
f 57/57/57 56/56/56 55/55/55
f 60/60/60 59/59/59 58/58/58
f 63/63/63 62/62/62 61/61/61
f 66/66/66 65/65/65 64/64/64
f 69/69/69 68/68/68 67/67/67
f 72/72/72 71/71/71 70/70/70
f 75/75/75 74/74/74 73/73/73
f 78/78/78 77/77/77 76/76/76
f 81/81/81 80/80/80 79/79/79
f 84/84/84 83/83/83 82/82/82
f 87/87/87 86/86/86 85/85/85
f 90/90/90 89/89/89 88/88/88
f 93/93/93 92/92/92 91/91/91
f 96/96/96 95/95/95 94/94/94
f 99/99/99 98/98/98 97/97/97
f 102/102/102 101/101/101 100/100/100
f 105/105/105 104/104/104 103/103/103
f 108/108/108 107/107/107 106/106/106
f 111/111/111 110/110/110 109/109/109
f 114/114/114 113/113/113 112/112/112
f 117/117/117 116/116/116 115/115/115
f 120/120/120 119/119/119 118/118/118
f 123/123/123 122/122/122 121/121/121
f 126/126/126 125/125/125 124/124/124
f 129/129/129 128/128/128 127/127/127
f 132/132/132 131/131/131 130/130/130
f 135/135/135 134/134/134 133/133/133
f 138/138/138 137/137/137 136/136/136
f 141/141/141 140/140/140 139/139/139
f 144/144/144 143/143/143 142/142/142
f 150/150/150 146/146/146 145/145/145
f 150/150/150 149/149/149 146/146/146
f 149/149/149 148/148/148 146/146/146
f 148/148/148 147/147/147 146/146/146
f 154/154/154 153/153/153 152/152/152
f 154/154/154 152/152/152 151/151/151
f 154/154/154 151/151/151 156/156/156
f 154/154/154 156/156/156 155/155/155
f 207/207/207 206/206/206 205/205/205
f 210/210/210 209/209/209 208/208/208
f 213/213/213 212/212/212 211/211/211
f 216/216/216 215/215/215 214/214/214

